STARTFONT 2.1
FONT -MIT-40VR KST-Medium-R-Normal--40-14-200-200-P-19-ISO8859-1
SIZE 14 200 200
FONTBOUNDINGBOX 36 40 -4 -10
STARTPROPERTIES 17
ADD_STYLE_NAME ""
AVERAGE_WIDTH 19
CHARSET_ENCODING "1"
CHARSET_REGISTRY "ISO8859"
DEFAULT_CHAR 0
FAMILY "40VR KST"
FONT_ASCENT 30
FONT_DESCENT 10
FOUNDRY "MIT"
PIXEL_SIZE 40
POINT_SIZE 14
RESOLUTION_X 200
RESOLUTION_Y 200
SETWIDTH_NAME "Normal"
SLANT "R"
SPACING "P"
WEIGHT_NAME "Medium"
ENDPROPERTIES
CHARS 121
STARTCHAR char1
ENCODING 1
SWIDTH 994 0
DWIDTH 14 0
BBX 12 40 0 -10
BITMAP
0000
0000
0000
0000
0000
0000
0000
0600
0600
0600
0600
0600
0600
0600
0600
0600
0600
0600
0600
0600
0600
0600
0600
C630
E670
76E0
3FC0
1F80
0F00
0600
0000
0000
0000
0000
0000
0000
0000
0000
0000
0000
ENDCHAR
STARTCHAR char2
ENCODING 2
SWIDTH 1988 0
DWIDTH 28 0
BBX 26 40 0 -10
BITMAP
00000000
00000000
00000000
00000000
00000000
00000000
00000000
00000000
00000000
00000000
00000000
00000000
00000380
00000700
00000E00
00001C00
00001C00
0FC03800
1FE07000
3FF06000
7078E000
E01FC000
E00FC000
E0078000
E00F0000
E01F8000
707BC1C0
3FF1E380
1FE0FF80
0FC07E00
00000000
00000000
00000000
00000000
00000000
00000000
00000000
00000000
00000000
00000000
ENDCHAR
STARTCHAR char3
ENCODING 3
SWIDTH 1775 0
DWIDTH 25 0
BBX 23 40 0 -10
BITMAP
000000
0000F0
0001F8
00039C
00070E
000E06
001C06
00380E
00380E
00701C
007038
00E070
00E0E0
01C1C0
01C3C0
0383E0
0380F0
070038
07001C
0E000C
0E000C
0C000C
1C400C
1C701C
387878
383FF0
380FC0
780000
700000
700000
700000
F00000
000000
000000
000000
000000
000000
000000
000000
000000
ENDCHAR
STARTCHAR char4
ENCODING 4
SWIDTH 1704 0
DWIDTH 24 0
BBX 21 40 0 -10
BITMAP
000000
000000
000000
000000
000000
000000
000000
000000
000000
000000
007000
00F800
00F800
01FC00
01DC00
03DE00
038E00
078F00
070700
0F0780
0E0380
1E03C0
1C01C0
3C01E0
3800E0
7800F0
700070
F00078
E00038
E00038
000000
000000
000000
000000
000000
000000
000000
000000
000000
000000
ENDCHAR
STARTCHAR char5
ENCODING 5
SWIDTH 1065 0
DWIDTH 15 0
BBX 13 40 0 -10
BITMAP
0000
0000
0000
0000
0000
0000
0000
0000
0000
0000
0000
0000
0000
0000
0000
0000
FFF8
FFF8
FFF8
0038
0038
0038
0038
0038
0000
0000
0000
0000
0000
0000
0000
0000
0000
0000
0000
0000
0000
0000
0000
0000
ENDCHAR
STARTCHAR char6
ENCODING 6
SWIDTH 994 0
DWIDTH 14 0
BBX 12 40 0 -10
BITMAP
0000
0000
0000
0000
0000
0000
0000
0000
00F0
03F0
0780
0E00
1C00
3800
7800
7000
7000
F000
FFF0
FFF0
F000
7000
7000
7800
3800
1C00
0E00
0780
03F0
00F0
0000
0000
0000
0000
0000
0000
0000
0000
0000
0000
ENDCHAR
STARTCHAR char7
ENCODING 7
SWIDTH 1420 0
DWIDTH 20 0
BBX 18 40 0 -10
BITMAP
000000
000000
000000
000000
000000
000000
000000
000000
000000
FFF800
FFFF00
FFFF80
1C1FC0
1C1C00
1C1C00
1C1C00
1C1C00
1C1C00
1C1C00
1C1C00
1C1C00
1C1C00
1C1C00
1C1C00
FC1C00
FC1FC0
000FC0
000000
000000
000000
000000
000000
000000
000000
000000
000000
000000
000000
000000
000000
ENDCHAR
STARTCHAR char8
ENCODING 8
SWIDTH 1420 0
DWIDTH 20 0
BBX 18 40 0 -10
BITMAP
000000
000000
000000
700000
7C0000
3E0000
0E0000
070000
038000
038000
03C000
01C000
01C000
01C000
03E000
03E000
077000
0E7800
0E3800
1C3C00
3C1C00
781E00
F00F00
E007C0
E003C0
0001C0
000000
000000
000000
000000
000000
000000
000000
000000
000000
000000
000000
000000
000000
000000
ENDCHAR
STARTCHAR char11
ENCODING 11
SWIDTH 923 0
DWIDTH 13 0
BBX 11 40 0 -10
BITMAP
0E00
1F00
3F80
7FC0
EEE0
CE60
8E20
0E00
0E00
0E00
0E00
0E00
0E00
0E00
0E00
0E00
0E00
0E00
0E00
0E00
0E00
0E00
0E00
0E00
0E00
0E00
0E00
0E00
0E00
0E00
0E00
0E00
0000
0000
0000
0000
0000
0000
0000
0000
ENDCHAR
STARTCHAR char14
ENCODING 14
SWIDTH 2059 0
DWIDTH 29 0
BBX 27 40 0 -10
BITMAP
00000000
00000000
00000000
00000000
00000000
00000000
00000000
00000000
00000000
00000000
00000000
00000000
00000000
0FC07E00
1FE0FF00
38F1E380
707BC1C0
E03F80E0
C01F0060
C00E0060
C00E0060
C00E0060
C01F0060
E03F80E0
707BC1C0
38F1E380
1FE0FF00
0FC07E00
00000000
00000000
00000000
00000000
00000000
00000000
00000000
00000000
00000000
00000000
00000000
00000000
ENDCHAR
STARTCHAR char15
ENCODING 15
SWIDTH 1349 0
DWIDTH 19 0
BBX 17 40 0 -10
BITMAP
700000
780000
7C0000
3E0000
1F0000
0F8000
07C000
01E000
00F000
00F800
007C00
003C00
003E00
001E00
000F00
000F00
000700
07E700
0FFF00
3FFF80
7C1F80
F00780
E00380
E00380
E00380
E00380
E00380
700700
7C1F00
3FFE00
0FF800
07F000
000000
000000
000000
000000
000000
000000
000000
000000
ENDCHAR
STARTCHAR char16
ENCODING 16
SWIDTH 1491 0
DWIDTH 21 0
BBX 19 40 0 -10
BITMAP
000000
000000
000000
000000
000000
000000
000000
000000
000000
000000
000000
000000
000000
0FFFE0
1FFFE0
3FFFE0
780000
F00000
E00000
E00000
E00000
E00000
F00000
780000
3FFFE0
1FFFE0
0FFFE0
000000
000000
000000
000000
000000
000000
000000
000000
000000
000000
000000
000000
000000
ENDCHAR
STARTCHAR char17
ENCODING 17
SWIDTH 1491 0
DWIDTH 21 0
BBX 19 40 0 -10
BITMAP
000000
000000
000000
000000
000000
000000
000000
000000
000000
000000
000000
000000
000000
FFFE00
FFFF00
FFFF80
0003C0
0001E0
0000E0
0000E0
0000E0
0000E0
0001E0
0003C0
FFFF80
FFFF00
FFFE00
000000
000000
000000
000000
000000
000000
000000
000000
000000
000000
000000
000000
000000
ENDCHAR
STARTCHAR char18
ENCODING 18
SWIDTH 1136 0
DWIDTH 16 0
BBX 14 40 0 -10
BITMAP
0000
0000
0000
0000
0000
0000
0000
0000
0000
0000
0000
0000
0FC0
1FE0
3FF0
7878
F03C
E01C
E01C
E01C
E01C
E01C
E01C
E01C
E01C
E01C
E01C
E01C
E01C
E01C
0000
0000
0000
0000
0000
0000
0000
0000
0000
0000
ENDCHAR
STARTCHAR char19
ENCODING 19
SWIDTH 1136 0
DWIDTH 16 0
BBX 14 40 0 -10
BITMAP
0000
0000
0000
0000
0000
0000
0000
0000
0000
0000
0000
0000
E01C
E01C
E01C
E01C
E01C
E01C
E01C
E01C
E01C
E01C
E01C
E01C
E01C
F03C
7878
3FF0
1FE0
0FC0
0000
0000
0000
0000
0000
0000
0000
0000
0000
0000
ENDCHAR
STARTCHAR char20
ENCODING 20
SWIDTH 1420 0
DWIDTH 20 0
BBX 18 40 0 -10
BITMAP
000000
000000
000000
000000
000000
E001C0
E001C0
E001C0
700380
700380
700380
380700
380700
380700
1FFF00
1FFE00
1FFE00
0E1C00
0E1C00
0E1C00
073800
073800
073800
03F000
03F000
03F000
01E000
01E000
00C000
00C000
000000
000000
000000
000000
000000
000000
000000
000000
000000
000000
ENDCHAR
STARTCHAR char21
ENCODING 21
SWIDTH 1278 0
DWIDTH 18 0
BBX 16 40 0 -10
BITMAP
0000
0000
0000
0000
FFFF
FFFF
FFFF
0007
0007
0007
0007
0007
0007
0007
0007
07FF
07FF
07FF
0007
0007
0007
0007
0007
0007
0007
0007
0007
FFFF
FFFF
FFFF
0000
0000
0000
0000
0000
0000
0000
0000
0000
0000
ENDCHAR
STARTCHAR char22
ENCODING 22
SWIDTH 1420 0
DWIDTH 20 0
BBX 18 40 0 -10
BITMAP
000000
000000
000000
000000
000000
000000
000000
000000
000000
000000
000000
000000
03F000
0FFC00
1C0E00
380700
780780
7C0F80
E739C0
C3F0C0
C0C0C0
C0C0C0
C3F0C0
E739C0
7C0F80
780780
380700
1C0E00
0FFC00
03F000
000000
000000
000000
000000
000000
000000
000000
000000
000000
000000
ENDCHAR
STARTCHAR char23
ENCODING 23
SWIDTH 1846 0
DWIDTH 26 0
BBX 24 40 0 -10
BITMAP
000000
000000
000000
000000
000000
000000
000000
000000
000000
000000
000000
000000
000000
018180
0381C0
0700E0
0E0070
1C0038
38001C
7FFFFE
FFFFFF
7FFFFE
38001C
1C0038
0E0070
0700E0
0381C0
018180
000000
000000
000000
000000
000000
000000
000000
000000
000000
000000
000000
000000
ENDCHAR
STARTCHAR char24
ENCODING 24
SWIDTH 1846 0
DWIDTH 26 0
BBX 23 40 0 -10
BITMAP
000000
000000
000000
000000
000000
000000
000000
000000
000000
000000
000000
000000
060000
0E0000
1C0000
380000
700000
FFFFFE
FFFFFE
700000
380000
1C0000
0E0000
060000
000000
000000
000000
000000
000000
000000
000000
000000
000000
000000
000000
000000
000000
000000
000000
000000
ENDCHAR
STARTCHAR char25
ENCODING 25
SWIDTH 1633 0
DWIDTH 23 0
BBX 21 40 0 -10
BITMAP
000000
000000
000000
000000
000000
000000
000000
000000
000000
000000
000000
000000
000000
000C00
000E00
000700
000380
0001C0
0000E0
FFFFF0
FFFFF8
FFFFF0
0000E0
0001C0
000380
000700
000E00
000C00
000000
000000
000000
000000
000000
000000
000000
000000
000000
000000
000000
000000
ENDCHAR
STARTCHAR char26
ENCODING 26
SWIDTH 1420 0
DWIDTH 20 0
BBX 18 40 0 -10
BITMAP
000000
000000
000000
000700
000700
000F00
000E00
001E00
001C00
003C00
003800
FFFFC0
FFFFC0
FFFFC0
00E000
01E000
01C000
FFFFC0
FFFFC0
FFFFC0
070000
0F0000
0E0000
1E0000
1C0000
3C0000
380000
380000
000000
000000
000000
000000
000000
000000
000000
000000
000000
000000
000000
000000
ENDCHAR
STARTCHAR char27
ENCODING 27
SWIDTH 1633 0
DWIDTH 23 0
BBX 20 40 0 -10
BITMAP
000000
006000
006000
006000
00F000
00F000
01F800
01F800
03FC00
079E00
0F0F00
1E0780
3E03C0
F801F0
F801F0
3C03C0
1E0780
0F0F00
079E00
03FC00
01F800
01F800
00F000
00F000
006000
006000
006000
000000
000000
000000
000000
000000
000000
000000
000000
000000
000000
000000
000000
000000
ENDCHAR
STARTCHAR char28
ENCODING 28
SWIDTH 1420 0
DWIDTH 20 0
BBX 18 40 0 -10
BITMAP
000000
000000
000000
000000
000000
000000
000000
0001C0
0007C0
001F80
007E00
01F800
07E000
1F8000
7E0000
F80000
7E0000
1F8000
07E000
01F800
007E00
001F80
0007C0
0001C0
000000
000000
000000
FFFFC0
FFFFC0
FFFFC0
000000
000000
000000
000000
000000
000000
000000
000000
000000
000000
ENDCHAR
STARTCHAR char29
ENCODING 29
SWIDTH 1420 0
DWIDTH 20 0
BBX 18 40 0 -10
BITMAP
000000
000000
000000
000000
000000
000000
000000
E00000
F80000
7E0000
1F8000
07E000
01F800
007E00
001F80
0007C0
001F80
007E00
01F800
07E000
1F8000
7E0000
F80000
E00000
000000
000000
000000
FFFFC0
FFFFC0
FFFFC0
000000
000000
000000
000000
000000
000000
000000
000000
000000
000000
ENDCHAR
STARTCHAR char30
ENCODING 30
SWIDTH 1065 0
DWIDTH 15 0
BBX 13 40 0 -10
BITMAP
0000
0000
0000
0000
0000
0000
0000
0000
0000
0000
0000
0000
0000
0000
FFF8
FFF8
FFF8
0000
0000
FFF8
FFF8
FFF8
0000
0000
FFF8
FFF8
FFF8
0000
0000
0000
0000
0000
0000
0000
0000
0000
0000
0000
0000
0000
ENDCHAR
STARTCHAR char31
ENCODING 31
SWIDTH 1491 0
DWIDTH 21 0
BBX 19 40 0 -10
BITMAP
000000
000000
000000
000000
000000
000000
000000
000000
000000
000000
000000
E000E0
E000E0
7001C0
7001C0
380380
380380
1C0700
1C0700
0E0E00
0E0E00
071C00
071C00
03B800
03B800
01F000
01F000
00E000
00E000
004000
000000
000000
000000
000000
000000
000000
000000
000000
000000
000000
ENDCHAR
STARTCHAR char32
ENCODING 32
SWIDTH 1136 0
DWIDTH 16 0
BBX 1 40 0 -10
BITMAP
00
00
00
00
00
00
00
00
00
00
00
00
00
00
00
00
00
00
00
00
00
00
00
00
00
00
00
00
00
00
00
00
00
00
00
00
00
00
00
00
ENDCHAR
STARTCHAR char33
ENCODING 33
SWIDTH 568 0
DWIDTH 8 0
BBX 6 40 0 -10
BITMAP
30
78
FC
FC
FC
FC
FC
FC
78
78
78
78
78
78
78
78
30
30
30
30
30
00
00
00
30
78
FC
FC
78
30
00
00
00
00
00
00
00
00
00
00
ENDCHAR
STARTCHAR char34
ENCODING 34
SWIDTH 852 0
DWIDTH 12 0
BBX 9 40 1 -10
BITMAP
E380
E380
E380
E380
E380
E380
E380
E380
E380
4100
0000
0000
0000
0000
0000
0000
0000
0000
0000
0000
0000
0000
0000
0000
0000
0000
0000
0000
0000
0000
0000
0000
0000
0000
0000
0000
0000
0000
0000
0000
ENDCHAR
STARTCHAR char35
ENCODING 35
SWIDTH 1562 0
DWIDTH 22 0
BBX 20 40 0 -10
BITMAP
000000
000000
000000
000000
000000
000000
000000
000000
000000
000000
000000
00E380
00E380
01E780
01C700
3FFFF0
7FFFF0
7FFFE0
038E00
079E00
071C00
7FFFE0
FFFFE0
FFFFC0
0E3800
1E7800
1C7000
1C7000
000000
000000
000000
000000
000000
000000
000000
000000
000000
000000
000000
000000
ENDCHAR
STARTCHAR char36
ENCODING 36
SWIDTH 1349 0
DWIDTH 19 0
BBX 17 40 0 -10
BITMAP
033000
033000
03F000
0FFC00
1F3E00
3B3700
333300
733780
633780
633780
633700
733000
733000
3F3000
3FF000
3FF000
1FFC00
0FFE00
03FF00
033F00
033F00
033380
033380
733180
F33180
F33180
F33380
633300
733700
3F3E00
1FFC00
03F000
033000
033000
033000
033000
000000
000000
000000
000000
ENDCHAR
STARTCHAR char37
ENCODING 37
SWIDTH 1491 0
DWIDTH 21 0
BBX 19 40 0 -10
BITMAP
000000
000000
00FF80
01FF80
018380
038380
3B0780
7E0700
EE0F00
C60E00
C61E00
EE1C00
7C3C00
383800
007800
007000
00F000
00E000
01E000
01C000
03C000
038000
078380
0707C0
0F0EE0
0E0C60
1E0C60
1C0EE0
3C07C0
380380
000000
000000
000000
000000
000000
000000
000000
000000
000000
000000
ENDCHAR
STARTCHAR char38
ENCODING 38
SWIDTH 1704 0
DWIDTH 24 0
BBX 23 40 0 -10
BITMAP
000000
01FC00
03FE00
070F00
0E0700
0E0700
0E0700
0E0700
0F0F00
070F00
079E00
03FC00
01F8FC
01F0FC
03F030
07F030
1E7830
3C7870
783C60
783C60
F01EE0
F01EC0
F00FC0
F00F80
F80F80
781FC0
7C3FE0
3FFBF0
1FF1FC
07E0FE
000000
000000
000000
000000
000000
000000
000000
000000
000000
000000
ENDCHAR
STARTCHAR char39
ENCODING 39
SWIDTH 568 0
DWIDTH 8 0
BBX 6 40 0 -10
BITMAP
00
30
78
FC
FC
7C
3C
0C
1C
18
18
10
00
00
00
00
00
00
00
00
00
00
00
00
00
00
00
00
00
00
00
00
00
00
00
00
00
00
00
00
ENDCHAR
STARTCHAR char40
ENCODING 40
SWIDTH 710 0
DWIDTH 10 0
BBX 8 40 0 -10
BITMAP
03
07
0E
1C
1C
38
38
38
70
70
70
70
E0
E0
E0
E0
E0
E0
E0
E0
70
70
70
70
38
38
38
1C
1C
0E
07
03
00
00
00
00
00
00
00
00
ENDCHAR
STARTCHAR char41
ENCODING 41
SWIDTH 710 0
DWIDTH 10 0
BBX 8 40 0 -10
BITMAP
C0
E0
70
38
38
1C
1C
1C
0E
0E
0E
0E
07
07
07
07
07
07
07
07
0E
0E
0E
0E
1C
1C
1C
38
38
70
E0
C0
00
00
00
00
00
00
00
00
ENDCHAR
STARTCHAR char42
ENCODING 42
SWIDTH 1136 0
DWIDTH 16 0
BBX 14 40 0 -10
BITMAP
0000
0000
0000
0000
0000
0000
0000
0000
0000
0000
0000
0300
0300
0780
0780
F33C
F33C
FB7C
1FF0
0780
0780
1FF0
FB7C
F33C
F33C
0780
0780
0300
0300
0000
0000
0000
0000
0000
0000
0000
0000
0000
0000
0000
ENDCHAR
STARTCHAR char43
ENCODING 43
SWIDTH 1065 0
DWIDTH 15 0
BBX 13 40 0 -10
BITMAP
0000
0000
0000
0000
0000
0000
0000
0000
0000
0000
0000
0000
0000
0700
0700
0700
0700
0700
FFF8
FFF8
FFF8
0700
0700
0700
0700
0700
0000
0000
0000
0000
0000
0000
0000
0000
0000
0000
0000
0000
0000
0000
ENDCHAR
STARTCHAR char44
ENCODING 44
SWIDTH 568 0
DWIDTH 8 0
BBX 5 40 1 -10
BITMAP
00
00
00
00
00
00
00
00
00
00
00
00
00
00
00
00
00
00
00
00
00
00
00
00
00
00
00
70
F8
F8
F8
38
38
70
E0
C0
00
00
00
00
ENDCHAR
STARTCHAR char45
ENCODING 45
SWIDTH 1065 0
DWIDTH 15 0
BBX 13 40 0 -10
BITMAP
0000
0000
0000
0000
0000
0000
0000
0000
0000
0000
0000
0000
0000
0000
0000
0000
0000
0000
0000
FFF8
FFF8
FFF8
0000
0000
0000
0000
0000
0000
0000
0000
0000
0000
0000
0000
0000
0000
0000
0000
0000
0000
ENDCHAR
STARTCHAR char46
ENCODING 46
SWIDTH 568 0
DWIDTH 8 0
BBX 6 40 0 -10
BITMAP
00
00
00
00
00
00
00
00
00
00
00
00
00
00
00
00
00
00
00
00
00
00
00
00
00
00
30
78
FC
FC
78
30
00
00
00
00
00
00
00
00
ENDCHAR
STARTCHAR char47
ENCODING 47
SWIDTH 994 0
DWIDTH 14 0
BBX 12 40 0 -10
BITMAP
0070
0070
0070
00F0
00E0
00E0
01E0
01C0
01C0
03C0
0380
0380
0780
0700
0700
0F00
0E00
0E00
1E00
1C00
1C00
3C00
3800
3800
7800
7000
7000
F000
E000
E000
E000
0000
0000
0000
0000
0000
0000
0000
0000
0000
ENDCHAR
STARTCHAR char48
ENCODING 48
SWIDTH 1349 0
DWIDTH 19 0
BBX 17 40 0 -10
BITMAP
000000
03E000
07F000
0E3800
1C1C00
380E00
380E00
780F00
780F00
700700
F00780
F00780
F00780
F00780
F00780
F00780
F00780
F00780
F00780
F00780
F00780
F00780
700700
780F00
380E00
380E00
180C00
1C1C00
0E3800
07F000
03E000
000000
000000
000000
000000
000000
000000
000000
000000
000000
ENDCHAR
STARTCHAR char49
ENCODING 49
SWIDTH 1349 0
DWIDTH 19 0
BBX 12 40 4 -10
BITMAP
0000
0F00
3F00
FF00
FF00
0F00
0F00
0F00
0F00
0F00
0F00
0F00
0F00
0F00
0F00
0F00
0F00
0F00
0F00
0F00
0F00
0F00
0F00
0F00
0F00
0F00
0F00
0F00
FFF0
FFF0
0000
0000
0000
0000
0000
0000
0000
0000
0000
0000
ENDCHAR
STARTCHAR char50
ENCODING 50
SWIDTH 1349 0
DWIDTH 19 0
BBX 17 40 0 -10
BITMAP
000000
07E000
0FF000
1FF800
387C00
303E00
601E00
601E00
781E00
7C1E00
7C1E00
3C1E00
001E00
001E00
001C00
003C00
007800
007000
00E000
01C000
01C000
038000
070180
0F0180
1E0180
3C0300
7FFF00
FFFF00
FFFF00
FFFF00
000000
000000
000000
000000
000000
000000
000000
000000
000000
000000
ENDCHAR
STARTCHAR char51
ENCODING 51
SWIDTH 1349 0
DWIDTH 19 0
BBX 17 40 0 -10
BITMAP
000000
07F000
0FF800
1C7C00
181C00
3C1E00
3C0E00
1C0E00
000E00
000E00
001E00
003C00
007800
00F000
1FC000
1FF800
00FC00
003E00
000F00
000F00
000780
000780
700780
F80780
F80F00
700F00
783E00
3FFC00
1FF800
07E000
000000
000000
000000
000000
000000
000000
000000
000000
000000
000000
ENDCHAR
STARTCHAR char52
ENCODING 52
SWIDTH 1349 0
DWIDTH 19 0
BBX 17 40 0 -10
BITMAP
000000
003800
007800
007800
00F800
00F800
01F800
01F800
037800
037800
067800
067800
0C7800
0C7800
187800
187800
307800
307800
607980
607980
FFFF80
FFFF80
007980
007980
007800
007800
007800
007800
03FF00
03FF00
000000
000000
000000
000000
000000
000000
000000
000000
000000
000000
ENDCHAR
STARTCHAR char53
ENCODING 53
SWIDTH 1349 0
DWIDTH 19 0
BBX 16 40 1 -10
BITMAP
0004
1FFC
1FFC
3FFC
3FF8
3000
3000
3000
3000
3000
3000
3000
3000
3FE0
3FF0
307C
003E
001E
001E
000F
000F
000F
700F
F00F
F01E
E01E
601C
7038
3FF0
0FC0
0000
0000
0000
0000
0000
0000
0000
0000
0000
0000
ENDCHAR
STARTCHAR char54
ENCODING 54
SWIDTH 1349 0
DWIDTH 19 0
BBX 16 40 1 -10
BITMAP
0000
003E
00FE
03E0
0780
0F00
1E00
1C00
3C00
3800
7800
7800
73E0
FFF8
FC3C
F81C
F81E
F81F
F00F
F00F
F00F
F00F
F00F
F81F
781E
781E
381C
1C38
0FF0
07E0
0000
0000
0000
0000
0000
0000
0000
0000
0000
0000
ENDCHAR
STARTCHAR char55
ENCODING 55
SWIDTH 1349 0
DWIDTH 19 0
BBX 16 40 1 -10
BITMAP
0000
3FFF
3FFE
7FFE
7006
7006
E00E
E00C
000C
001C
0018
0018
0018
0030
0030
0030
0070
0060
0060
00E0
00E0
01C0
01C0
01C0
03C0
03C0
03C0
03C0
03C0
03C0
0000
0000
0000
0000
0000
0000
0000
0000
0000
0000
ENDCHAR
STARTCHAR char56
ENCODING 56
SWIDTH 1349 0
DWIDTH 19 0
BBX 18 40 0 -10
BITMAP
000000
03F000
0FFC00
1E1E00
3C0F00
3C0F00
780780
780780
780780
780780
7C0F80
3C0F00
1C0E00
0F3C00
03F000
0FFC00
1E1E00
380700
780780
F003C0
F003C0
F003C0
F003C0
F003C0
F003C0
780780
380700
1E1E00
0FFC00
03F000
000000
000000
000000
000000
000000
000000
000000
000000
000000
000000
ENDCHAR
STARTCHAR char57
ENCODING 57
SWIDTH 1349 0
DWIDTH 19 0
BBX 16 40 1 -10
BITMAP
0000
07E0
0FF0
1C38
381C
781E
781E
F81F
F00F
F00F
F00F
F00F
F00F
F81F
781F
381F
3C3F
1FFF
07CE
001E
001E
001C
003C
0038
0078
00F0
01E0
07C0
7F00
7C00
0000
0000
0000
0000
0000
0000
0000
0000
0000
0000
ENDCHAR
STARTCHAR char58
ENCODING 58
SWIDTH 568 0
DWIDTH 8 0
BBX 6 40 0 -10
BITMAP
00
00
00
00
00
00
00
00
00
00
00
00
30
78
FC
FC
78
30
00
00
00
00
00
00
30
78
FC
FC
78
30
00
00
00
00
00
00
00
00
00
00
ENDCHAR
STARTCHAR char59
ENCODING 59
SWIDTH 568 0
DWIDTH 8 0
BBX 6 40 0 -10
BITMAP
00
00
00
00
00
00
00
00
00
00
00
00
30
78
FC
FC
78
30
00
00
00
00
00
00
30
78
FC
FC
7C
3C
1C
18
38
30
70
00
00
00
00
00
ENDCHAR
STARTCHAR char60
ENCODING 60
SWIDTH 1491 0
DWIDTH 21 0
BBX 19 40 0 -10
BITMAP
000000
000000
000000
000000
000000
000000
000000
000000
000000
000060
0001E0
0007E0
001F80
007E00
01F800
07E000
1F8000
7E0000
F80000
7E0000
1F8000
07E000
01F800
007E00
001F80
0007E0
0001E0
000060
000000
000000
000000
000000
000000
000000
000000
000000
000000
000000
000000
000000
ENDCHAR
STARTCHAR char61
ENCODING 61
SWIDTH 1065 0
DWIDTH 15 0
BBX 13 40 0 -10
BITMAP
0000
0000
0000
0000
0000
0000
0000
0000
0000
0000
0000
0000
0000
0000
0000
0000
FFF8
FFF8
FFF8
0000
0000
FFF8
FFF8
FFF8
0000
0000
0000
0000
0000
0000
0000
0000
0000
0000
0000
0000
0000
0000
0000
0000
ENDCHAR
STARTCHAR char62
ENCODING 62
SWIDTH 1491 0
DWIDTH 21 0
BBX 19 40 0 -10
BITMAP
000000
000000
000000
000000
000000
000000
000000
000000
000000
000000
C00000
F00000
FC0000
3F0000
0FC000
03F000
00FC00
003F00
000FC0
0003E0
000FC0
003F00
00FC00
03F000
0FC000
3F0000
FC0000
F00000
C00000
000000
000000
000000
000000
000000
000000
000000
000000
000000
000000
000000
ENDCHAR
STARTCHAR char63
ENCODING 63
SWIDTH 1065 0
DWIDTH 15 0
BBX 13 40 0 -10
BITMAP
0000
0F80
1FC0
3FE0
70F0
6070
F038
F038
F038
6038
0078
0078
00F0
01F0
03E0
07C0
0780
0700
0E00
0E00
0C00
0C00
0000
0000
0000
0C00
1E00
3F00
3F00
1E00
0C00
0000
0000
0000
0000
0000
0000
0000
0000
0000
ENDCHAR
STARTCHAR char64
ENCODING 64
SWIDTH 1562 0
DWIDTH 22 0
BBX 20 40 0 -10
BITMAP
000000
000000
000000
000000
000000
000000
000000
000000
000000
000000
07FE00
1FFF80
1FFF80
3801E0
7000E0
61F870
E7FE70
C70E30
CF0F30
CE0730
CE0730
CE0730
CF0F70
C70F60
C7FFE0
C1FFC0
E00000
700000
3FFFF0
1FFFF0
000000
000000
000000
000000
000000
000000
000000
000000
000000
000000
ENDCHAR
STARTCHAR char65
ENCODING 65
SWIDTH 1988 0
DWIDTH 28 0
BBX 26 40 0 -10
BITMAP
00000000
00040000
000C0000
000E0000
000E0000
001E0000
001F0000
001F0000
00370000
00278000
00678000
00678000
0043C000
00C3C000
00C3C000
0081E000
0181E000
0181E000
0101F000
03FFF000
03FFF000
02007800
06007800
06007800
04003C00
0C003C00
0C003C00
18001E00
FFC1FFC0
FFC1FFC0
00000000
00000000
00000000
00000000
00000000
00000000
00000000
00000000
00000000
00000000
ENDCHAR
STARTCHAR char66
ENCODING 66
SWIDTH 1704 0
DWIDTH 24 0
BBX 22 40 0 -10
BITMAP
000000
FFFF80
FFFFC0
1E01E0
1E00F0
1E00F0
1E00F8
1E00F8
1E00F8
1E00F8
1E00F0
1E00F0
1E01E0
1E03C0
1FFF80
1FFFE0
1E03F0
1E01F8
1E00FC
1E007C
1E007C
1E007C
1E007C
1E007C
1E007C
1E007C
1E00F8
1E01F8
FFFFF0
FFFFC0
000000
000000
000000
000000
000000
000000
000000
000000
000000
000000
ENDCHAR
STARTCHAR char67
ENCODING 67
SWIDTH 1775 0
DWIDTH 25 0
BBX 23 40 0 -10
BITMAP
001C00
00FF8C
03C3EC
0F007C
1F001C
1E001C
3E000C
3C000C
7C000C
7C0000
F80000
F80000
F80000
F80000
F80000
F80000
F80000
F80000
F80000
F80000
F80000
7C0006
7C0006
3C0006
3E0006
1E001E
1F001E
0FC0F6
03FFE6
00FF86
000000
000000
000000
000000
000000
000000
000000
000000
000000
000000
ENDCHAR
STARTCHAR char68
ENCODING 68
SWIDTH 2059 0
DWIDTH 29 0
BBX 27 40 0 -10
BITMAP
00000000
FFFFF000
FFFFF800
0F807C00
0F803E00
0F800F00
0F800700
0F800780
0F800780
0F8007C0
0F8007C0
0F8003E0
0F8003E0
0F8003E0
0F8003E0
0F8003E0
0F8003E0
0F8003E0
0F8003E0
0F8003E0
0F8007E0
0F8007C0
0F8007C0
0F800780
0F800780
0F800F00
0F803F00
0F807E00
FFFFFC00
FFFFF000
00000000
00000000
00000000
00000000
00000000
00000000
00000000
00000000
00000000
00000000
ENDCHAR
STARTCHAR char69
ENCODING 69
SWIDTH 1846 0
DWIDTH 26 0
BBX 25 40 0 -10
BITMAP
00000000
FFFFFE00
FFFFFE00
0F800E00
0F800600
0F800200
0F800200
0F800000
0F800000
0F808000
0F808000
0F818000
0F838000
0F878000
0FFF8000
0FFF8000
0F878000
0F838000
0F818000
0F808000
0F808000
0F800000
0F800080
0F800080
0F800180
0F800180
0F800380
0F800380
FFFFFF80
FFFFFF80
00000000
00000000
00000000
00000000
00000000
00000000
00000000
00000000
00000000
00000000
ENDCHAR
STARTCHAR char70
ENCODING 70
SWIDTH 1775 0
DWIDTH 25 0
BBX 23 40 0 -10
BITMAP
000000
FFFFFE
FFFFFE
0F800E
0F8006
0F8006
0F8002
0F8002
0F8002
0F8080
0F8080
0F8180
0F8380
0F8780
0FFF80
0FFF80
0F8780
0F8380
0F8180
0F8080
0F8080
0F8000
0F8000
0F8000
0F8000
0F8000
0F8000
0F8000
FFFC00
FFFC00
000000
000000
000000
000000
000000
000000
000000
000000
000000
000000
ENDCHAR
STARTCHAR char71
ENCODING 71
SWIDTH 2059 0
DWIDTH 29 0
BBX 27 40 0 -10
BITMAP
003E0000
00FF8800
03C1EC00
07007C00
0E003C00
1E001C00
1E001C00
3E000C00
3C000C00
7C000400
7C000000
7C000000
FC000000
FC000000
FC000000
FC000000
FC000000
FC07FFE0
FC07FFE0
7C007E00
7C007E00
7C007E00
3E007E00
3E007E00
1E007C00
0E007C00
0700F800
0381F000
01FFE000
007F0000
00000000
00000000
00000000
00000000
00000000
00000000
00000000
00000000
00000000
00000000
ENDCHAR
STARTCHAR char72
ENCODING 72
SWIDTH 2201 0
DWIDTH 31 0
BBX 29 40 0 -10
BITMAP
00000000
FFF8FFF8
FFF8FFF8
0F800F80
0F800F80
0F800F80
0F800F80
0F800F80
0F800F80
0F800F80
0F800F80
0F800F80
0F800F80
0F800F80
0FFFFF80
0FFFFF80
0F800F80
0F800F80
0F800F80
0F800F80
0F800F80
0F800F80
0F800F80
0F800F80
0F800F80
0F800F80
0F800F80
0F800F80
FFF8FFF8
FFF8FFF8
00000000
00000000
00000000
00000000
00000000
00000000
00000000
00000000
00000000
00000000
ENDCHAR
STARTCHAR char73
ENCODING 73
SWIDTH 1065 0
DWIDTH 15 0
BBX 13 40 0 -10
BITMAP
0000
FFF8
FFF8
0F80
0F80
0F80
0F80
0F80
0F80
0F80
0F80
0F80
0F80
0F80
0F80
0F80
0F80
0F80
0F80
0F80
0F80
0F80
0F80
0F80
0F80
0F80
0F80
0F80
FFF8
FFF8
0000
0000
0000
0000
0000
0000
0000
0000
0000
0000
ENDCHAR
STARTCHAR char74
ENCODING 74
SWIDTH 1278 0
DWIDTH 18 0
BBX 16 40 0 -10
BITMAP
0000
1FFF
1FFF
01F0
01F0
01F0
01F0
01F0
01F0
01F0
01F0
01F0
01F0
01F0
01F0
01F0
01F0
01F0
01F0
01F0
01F0
01F0
01F0
01F0
01F0
01F0
01F0
71F0
F9E0
F9E0
F1C0
73C0
7F80
1E00
0000
0000
0000
0000
0000
0000
ENDCHAR
STARTCHAR char75
ENCODING 75
SWIDTH 2272 0
DWIDTH 32 0
BBX 30 40 0 -10
BITMAP
00000000
FFFCFFE0
FFFCFFE0
0F801C00
0F803800
0F807000
0F80E000
0F81C000
0F838000
0F870000
0F8E0000
0F9C0000
0FBC0000
0FFE0000
0FFE0000
0FBF0000
0F9F8000
0F9F8000
0F8FC000
0F87E000
0F83F000
0F83F000
0F81F800
0F80FC00
0F807E00
0F803F00
0F803F00
0F801F80
FFFCFFFC
FFFCFFFC
00000000
00000000
00000000
00000000
00000000
00000000
00000000
00000000
00000000
00000000
ENDCHAR
STARTCHAR char76
ENCODING 76
SWIDTH 1704 0
DWIDTH 24 0
BBX 22 40 0 -10
BITMAP
000000
FFF800
FFF800
0F8000
0F8000
0F8000
0F8000
0F8000
0F8000
0F8000
0F8000
0F8000
0F8000
0F8000
0F8000
0F8000
0F8000
0F8000
0F8000
0F8000
0F8000
0F8004
0F8004
0F800C
0F800C
0F800C
0F801C
0F801C
FFFFFC
FFFFFC
000000
000000
000000
000000
000000
000000
000000
000000
000000
000000
ENDCHAR
STARTCHAR char77
ENCODING 77
SWIDTH 2485 0
DWIDTH 35 0
BBX 33 40 0 -10
BITMAP
0000000000
FFC0007F80
FFC001FF80
0FE001FC00
0FE001FC00
0FF003FC00
0DF0037C00
0DF0037C00
0CF8037C00
0CF8067C00
0CF8067C00
0C7C067C00
0C7C0C7C00
0C7C0C7C00
0C3E0C7C00
0C3E187C00
0C3E187C00
0C1F187C00
0C1F307C00
0C1F307C00
0C0FB07C00
0C0FF07C00
0C0FE07C00
0C07E07C00
0C07E07C00
0C07E07C00
0C03C07C00
0C03C07C00
FFC3C3FF80
FFC183FF80
0000000000
0000000000
0000000000
0000000000
0000000000
0000000000
0000000000
0000000000
0000000000
0000000000
ENDCHAR
STARTCHAR char78
ENCODING 78
SWIDTH 2130 0
DWIDTH 30 0
BBX 28 40 0 -10
BITMAP
00000000
FFC00FF0
FFE00FF0
0FE00180
0FF00180
0DF80180
0CF80180
0CFC0180
0C7E0180
0C3E0180
0C3F0180
0C1F0180
0C0F8180
0C0FC180
0C07C180
0C07E180
0C03E180
0C03F180
0C01F180
0C00F980
0C00FD80
0C007D80
0C003F80
0C003F80
0C001F80
0C000F80
0C000F80
0C000780
FFC00380
FFC00380
00000000
00000000
00000000
00000000
00000000
00000000
00000000
00000000
00000000
00000000
ENDCHAR
STARTCHAR char79
ENCODING 79
SWIDTH 1988 0
DWIDTH 28 0
BBX 26 40 0 -10
BITMAP
003E0000
00FFC000
01E3E000
07807800
0E001C00
1E001E00
1E001E00
3C000F00
3C000F00
7C000F80
7C000F80
7C000F80
FC000FC0
FC000FC0
FC000FC0
FC000FC0
FC000FC0
FC000FC0
FC000FC0
7C000F80
7C000F80
7C000F80
3C000F00
3C000F00
3E001F00
1E001E00
0E001C00
07003800
03E3F000
00FFC000
003E0000
00000000
00000000
00000000
00000000
00000000
00000000
00000000
00000000
00000000
ENDCHAR
STARTCHAR char80
ENCODING 80
SWIDTH 1704 0
DWIDTH 24 0
BBX 22 40 0 -10
BITMAP
000000
FFFF80
FFFFE0
0F81F0
0F80F8
0F8078
0F807C
0F807C
0F807C
0F807C
0F807C
0F807C
0F8078
0F8078
0F80F0
0F83E0
0FFFC0
0FFE00
0F8000
0F8000
0F8000
0F8000
0F8000
0F8000
0F8000
0F8000
0F8000
0F8000
FFF800
FFF800
000000
000000
000000
000000
000000
000000
000000
000000
000000
000000
ENDCHAR
STARTCHAR char81
ENCODING 81
SWIDTH 1988 0
DWIDTH 28 0
BBX 26 40 0 -10
BITMAP
003E0000
00FFC000
01E3E000
07807800
0E001C00
1E001E00
1E001E00
3C000F00
3C000F00
7C000F80
7C000F80
7C000F80
FC000FC0
FC000FC0
FC000FC0
FC000FC0
FC000FC0
FC000FC0
FC000FC0
7C000F80
7C000F80
7C000F80
3C000F00
3C000F00
3E001F00
1E001E00
0E001C00
07003800
03E3F000
00FFC000
007F0000
007F0000
007F0000
003F0000
003F8000
003F8000
001F8000
001FC000
000FC000
0007C000
ENDCHAR
STARTCHAR char82
ENCODING 82
SWIDTH 1917 0
DWIDTH 27 0
BBX 25 40 0 -10
BITMAP
00000000
FFFFC000
FFFFF000
0F80F800
0F807800
0F807C00
0F807C00
0F807C00
0F807C00
0F807C00
0F807800
0F80F800
0F81F000
0F8FC000
0FFE0000
0FFF0000
0F8FC000
0F83E000
0F81F000
0F80F000
0F80F000
0F80F800
0F80F800
0F80F800
0F807800
0F807800
0F807800
0F803C00
FFF83C80
FFF81F80
00000700
00000000
00000000
00000000
00000000
00000000
00000000
00000000
00000000
00000000
ENDCHAR
STARTCHAR char83
ENCODING 83
SWIDTH 1491 0
DWIDTH 21 0
BBX 19 40 0 -10
BITMAP
03F800
0FFCC0
1E0EC0
3807C0
7003C0
6001C0
6000C0
7000C0
7000C0
780000
780000
7E0000
3FE000
3FF800
1FFE00
0FFF00
03FF80
00FF80
001FC0
0007C0
0003C0
0003E0
C001E0
C001E0
C001E0
E001C0
F003C0
F80380
DE0F00
CFFE00
03F800
000000
000000
000000
000000
000000
000000
000000
000000
000000
ENDCHAR
STARTCHAR char84
ENCODING 84
SWIDTH 2201 0
DWIDTH 31 0
BBX 29 40 0 -10
BITMAP
00000000
7FFFFFF0
7FFFFFF0
780F80F0
700F8070
600F8030
600F8030
400F8010
C00F8018
C00F8018
000F8000
000F8000
000F8000
000F8000
000F8000
000F8000
000F8000
000F8000
000F8000
000F8000
000F8000
000F8000
000F8000
000F8000
000F8000
000F8000
000F8000
000F8000
01FFFC00
01FFFC00
00000000
00000000
00000000
00000000
00000000
00000000
00000000
00000000
00000000
00000000
ENDCHAR
STARTCHAR char85
ENCODING 85
SWIDTH 2059 0
DWIDTH 29 0
BBX 27 40 0 -10
BITMAP
00000000
FFF83FE0
FFF83FE0
0F800600
0F800600
0F800600
0F800600
0F800600
0F800600
0F800600
0F800600
0F800600
0F800600
0F800600
0F800600
0F800600
0F800600
0F800600
0F800600
0F800600
0F800600
0F800600
0F800600
0F800600
0F800600
07C00E00
07C01C00
03E03800
01FFF000
003FC000
00000000
00000000
00000000
00000000
00000000
00000000
00000000
00000000
00000000
00000000
ENDCHAR
STARTCHAR char86
ENCODING 86
SWIDTH 2130 0
DWIDTH 30 0
BBX 28 40 0 -10
BITMAP
00000000
FFFC3FF0
FFFC3FF0
0FC00300
07C00300
07C00600
07C00600
03E00600
03E00C00
03E00C00
03F00C00
01F00C00
01F01800
01F81800
00F81800
00F83000
00FC3000
007C3000
007C3000
007C6000
003E6000
003E6000
003EC000
001EC000
001FC000
000F8000
000F8000
000F8000
00070000
00070000
00000000
00000000
00000000
00000000
00000000
00000000
00000000
00000000
00000000
00000000
ENDCHAR
STARTCHAR char87
ENCODING 87
SWIDTH 2698 0
DWIDTH 38 0
BBX 36 40 0 -10
BITMAP
0000000000
FFFFFFCFF0
FFFFFFCFF0
1F07C60180
1F07C60180
0F83EE0380
0F83EE0380
0F83EC0300
07C1FC0700
07C1FC0700
07C1F80600
03E0F80E00
03E0F80E00
03E0F80C00
01E0781C00
01F07C1C00
01F0FC1800
00F0FC3800
00F8FE3800
00F9FE3000
00F9FE7000
007D9F7000
007F9F6000
007F9FE000
003F0FC000
003F0FC000
003F0FC000
001E078000
001E078000
001E078000
0000000000
0000000000
0000000000
0000000000
0000000000
0000000000
0000000000
0000000000
0000000000
0000000000
ENDCHAR
STARTCHAR char88
ENCODING 88
SWIDTH 2130 0
DWIDTH 30 0
BBX 28 40 0 -10
BITMAP
00000000
FFF83FF0
FFF83FF0
0FC00700
07E00600
03E00E00
03F00C00
01F01C00
01F83800
00F83000
00FC7000
007CE000
007EC000
003FC000
001F8000
001F8000
000F8000
001FC000
001FC000
003FE000
0073F000
0061F000
00E1F800
00C0F800
01C0FC00
03807E00
07003E00
06003F00
FFC1FFF0
FFC1FFF0
00000000
00000000
00000000
00000000
00000000
00000000
00000000
00000000
00000000
00000000
ENDCHAR
STARTCHAR char89
ENCODING 89
SWIDTH 2130 0
DWIDTH 30 0
BBX 28 40 0 -10
BITMAP
00000000
FFF83FF0
FFF83FF0
0F800700
07C00600
07C00E00
03E00C00
03E01800
01F01800
01F03000
00F83000
00F86000
007C6000
007CC000
003FC000
003F8000
001F0000
001F0000
001F0000
001F0000
001F0000
001F0000
001F0000
001F0000
001F0000
001F0000
001F0000
001F0000
01FFF000
01FFF000
00000000
00000000
00000000
00000000
00000000
00000000
00000000
00000000
00000000
00000000
ENDCHAR
STARTCHAR char90
ENCODING 90
SWIDTH 1704 0
DWIDTH 24 0
BBX 22 40 0 -10
BITMAP
000000
7FFFFC
7FFFF8
7801F8
7001F0
7003F0
6003E0
6007E0
600FC0
000F80
001F80
001F00
003F00
007E00
007C00
00FC00
01F800
03F000
03E000
07E000
07C000
0FC018
0F8018
1F8018
3F0038
3E0038
7E0038
7C0078
FFFFF8
FFFFF8
000000
000000
000000
000000
000000
000000
000000
000000
000000
000000
ENDCHAR
STARTCHAR char91
ENCODING 91
SWIDTH 710 0
DWIDTH 10 0
BBX 7 40 1 -10
BITMAP
FE
FE
E0
E0
E0
E0
E0
E0
E0
E0
E0
E0
E0
E0
E0
E0
E0
E0
E0
E0
E0
E0
E0
E0
E0
E0
E0
E0
E0
E0
FE
FE
00
00
00
00
00
00
00
00
ENDCHAR
STARTCHAR char92
ENCODING 92
SWIDTH 1065 0
DWIDTH 15 0
BBX 12 40 0 -10
BITMAP
E000
E000
E000
F000
7000
7000
7800
3800
3800
3C00
1C00
1C00
1E00
0E00
0E00
0F00
0700
0700
0780
0380
0380
03C0
01C0
01C0
01E0
00E0
00E0
00F0
0070
0070
0070
0000
0000
0000
0000
0000
0000
0000
0000
0000
ENDCHAR
STARTCHAR char93
ENCODING 93
SWIDTH 781 0
DWIDTH 11 0
BBX 7 40 2 -10
BITMAP
FE
FE
0E
0E
0E
0E
0E
0E
0E
0E
0E
0E
0E
0E
0E
0E
0E
0E
0E
0E
0E
0E
0E
0E
0E
0E
0E
0E
0E
0E
FE
FE
00
00
00
00
00
00
00
00
ENDCHAR
STARTCHAR char95
ENCODING 95
SWIDTH 1349 0
DWIDTH 19 0
BBX 19 40 0 -10
BITMAP
000000
000000
000000
000000
000000
000000
000000
000000
000000
000000
000000
000000
000000
000000
000000
000000
000000
000000
000000
000000
000000
000000
000000
000000
000000
000000
000000
000000
000000
000000
000000
000000
FFFFE0
FFFFE0
FFFFE0
000000
000000
000000
000000
000000
ENDCHAR
STARTCHAR char96
ENCODING 96
SWIDTH 639 0
DWIDTH 9 0
BBX 7 40 0 -10
BITMAP
00
1C
7E
7E
FE
9E
8C
C0
40
60
30
18
08
00
00
00
00
00
00
00
00
00
00
00
00
00
00
00
00
00
00
00
00
00
00
00
00
00
00
00
ENDCHAR
STARTCHAR char97
ENCODING 97
SWIDTH 1278 0
DWIDTH 18 0
BBX 16 40 0 -10
BITMAP
0000
0000
0000
0000
0000
0000
0000
0000
0000
0000
0000
0000
0FF0
1FF8
307C
383C
783C
383C
003C
003C
0FFC
3FFC
7C3C
F83C
F03C
F03C
F07C
F8FD
7FBF
3F1F
0000
0000
0000
0000
0000
0000
0000
0000
0000
0000
ENDCHAR
STARTCHAR char98
ENCODING 98
SWIDTH 1420 0
DWIDTH 20 0
BBX 18 40 0 -10
BITMAP
000000
FE0000
FE0000
1E0000
1E0000
1E0000
1E0000
1E0000
1E0000
1E0000
1E0000
1E0000
1E3800
1EFE00
1FFF00
1F8780
1F0380
1E0380
1E03C0
1E03C0
1E03C0
1E03C0
1E03C0
1E03C0
1E03C0
1E03C0
1F0380
1F8780
FFFF00
FEFE00
003800
000000
000000
000000
000000
000000
000000
000000
000000
000000
ENDCHAR
STARTCHAR char99
ENCODING 99
SWIDTH 1207 0
DWIDTH 17 0
BBX 14 40 1 -10
BITMAP
0000
0000
0000
0000
0000
0000
0000
0000
0000
0000
0000
0000
0780
1FE0
3CF0
7038
7038
E018
E018
E000
E000
E000
E000
E000
E00C
7018
7038
3C70
1FE0
07C0
0000
0000
0000
0000
0000
0000
0000
0000
0000
0000
ENDCHAR
STARTCHAR char100
ENCODING 100
SWIDTH 1420 0
DWIDTH 20 0
BBX 18 40 0 -10
BITMAP
000000
00FE00
00FE00
001E00
001E00
001E00
001E00
001E00
001E00
001E00
001E00
001E00
079E00
1FDE00
387E00
703E00
701E00
701E00
F01E00
F01E00
F01E00
F01E00
F01E00
F01E00
F01E00
F01E00
703E00
703E00
38FFC0
1FDFC0
078000
000000
000000
000000
000000
000000
000000
000000
000000
000000
ENDCHAR
STARTCHAR char101
ENCODING 101
SWIDTH 1278 0
DWIDTH 18 0
BBX 16 40 0 -10
BITMAP
0000
0000
0000
0000
0000
0000
0000
0000
0000
0000
0000
0000
03E0
0FF8
1C3C
381C
381E
780E
780E
FFFE
FFFE
F000
F000
F000
7801
7803
3C06
1E0C
0FF8
07F0
0000
0000
0000
0000
0000
0000
0000
0000
0000
0000
ENDCHAR
STARTCHAR char102
ENCODING 102
SWIDTH 1136 0
DWIDTH 16 0
BBX 14 40 0 -10
BITMAP
0000
01F8
03FC
078C
073C
0F3C
0F1C
0F00
0F00
0F00
0F00
0F00
0F00
FFF0
FFF0
0F00
0F00
0F00
0F00
0F00
0F00
0F00
0F00
0F00
0F00
0F00
0F00
0F00
FFF0
FFF0
0000
0000
0000
0000
0000
0000
0000
0000
0000
0000
ENDCHAR
STARTCHAR char103
ENCODING 103
SWIDTH 1420 0
DWIDTH 20 0
BBX 18 40 0 -10
BITMAP
000000
000000
000000
000000
000000
000000
000000
000000
000000
000000
000000
000000
07E3C0
0FF7C0
1C3DC0
381C00
381C00
781E00
781E00
781E00
381C00
381C00
1C3800
0FF000
3FC000
780000
600000
780000
3FF800
1FFC00
7FFE00
600E00
C00600
C00600
C00600
E00C00
703800
3FF000
0FC000
000000
ENDCHAR
STARTCHAR char104
ENCODING 104
SWIDTH 1633 0
DWIDTH 23 0
BBX 21 40 0 -10
BITMAP
000000
FE0000
FE0000
1E0000
1E0000
1E0000
1E0000
1E0000
1E0000
1E0000
1E0000
1E0000
1E3E00
1E7F80
1EFFC0
1FC7C0
1F83C0
1F03C0
1F03C0
1E03C0
1E03C0
1E03C0
1E03C0
1E03C0
1E03C0
1E03C0
1E03C0
1E03C0
FFDFF8
FFDFF8
000000
000000
000000
000000
000000
000000
000000
000000
000000
000000
ENDCHAR
STARTCHAR char105
ENCODING 105
SWIDTH 852 0
DWIDTH 12 0
BBX 10 40 0 -10
BITMAP
0000
0C00
1E00
1E00
0C00
0000
0000
0000
0000
0000
0000
0000
FE00
FE00
1E00
1E00
1E00
1E00
1E00
1E00
1E00
1E00
1E00
1E00
1E00
1E00
1E00
1E00
FFC0
FFC0
0000
0000
0000
0000
0000
0000
0000
0000
0000
0000
ENDCHAR
STARTCHAR char106
ENCODING 106
SWIDTH 781 0
DWIDTH 11 0
BBX 9 40 0 -10
BITMAP
0000
0300
0780
0780
0300
0000
0000
0000
0000
0000
0000
0000
7F80
7F80
0780
0780
0780
0780
0780
0780
0780
0780
0780
0780
0780
0780
0780
0780
0780
0780
0780
0780
0780
0780
0780
E700
E700
E600
EE00
7C00
ENDCHAR
STARTCHAR char107
ENCODING 107
SWIDTH 1562 0
DWIDTH 22 0
BBX 20 40 0 -10
BITMAP
000000
FF0000
FF0000
3C0000
3C0000
3C0000
3C0000
3C0000
3C0000
3C0000
3C0000
3C0000
3C7FC0
3C7FC0
3C0C00
3C1C00
3C3800
3C7000
3CE000
3DC000
3FC000
3FE000
3DF000
3CF800
3C7C00
3C3E00
3C1F00
3C0F80
FF9FF0
FF9FF0
000000
000000
000000
000000
000000
000000
000000
000000
000000
000000
ENDCHAR
STARTCHAR char108
ENCODING 108
SWIDTH 852 0
DWIDTH 12 0
BBX 10 40 0 -10
BITMAP
0000
FE00
FE00
1E00
1E00
1E00
1E00
1E00
1E00
1E00
1E00
1E00
1E00
1E00
1E00
1E00
1E00
1E00
1E00
1E00
1E00
1E00
1E00
1E00
1E00
1E00
1E00
1E00
FFC0
FFC0
0000
0000
0000
0000
0000
0000
0000
0000
0000
0000
ENDCHAR
STARTCHAR char109
ENCODING 109
SWIDTH 2343 0
DWIDTH 33 0
BBX 31 40 0 -10
BITMAP
00000000
00000000
00000000
00000000
00000000
00000000
00000000
00000000
00000000
00000000
00000000
00000000
FE3F0FE0
FE7F9FF0
1EE7F9F0
1FC3F0F0
1F83E0F0
1F03C0F0
1E03C0F0
1E03C0F0
1E03C0F0
1E03C0F0
1E03C0F0
1E03C0F0
1E03C0F0
1E03C0F0
1E03C0F0
1E03C0F0
FF9FFBFE
FF9FFBFE
00000000
00000000
00000000
00000000
00000000
00000000
00000000
00000000
00000000
00000000
ENDCHAR
STARTCHAR char110
ENCODING 110
SWIDTH 1633 0
DWIDTH 23 0
BBX 21 40 0 -10
BITMAP
000000
000000
000000
000000
000000
000000
000000
000000
000000
000000
000000
000000
FE3E00
FE7F80
1EFFC0
1FC7C0
1F83C0
1F03C0
1F03C0
1E03C0
1E03C0
1E03C0
1E03C0
1E03C0
1E03C0
1E03C0
1E03C0
1E03C0
FFDFF8
FFDFF8
000000
000000
000000
000000
000000
000000
000000
000000
000000
000000
ENDCHAR
STARTCHAR char111
ENCODING 111
SWIDTH 1349 0
DWIDTH 19 0
BBX 17 40 0 -10
BITMAP
000000
000000
000000
000000
000000
000000
000000
000000
000000
000000
000000
000000
03E000
0FF800
1C1C00
380E00
780F00
700700
F00780
F00780
F00780
F00780
F00780
F00780
700700
780F00
380E00
1C1C00
0FF800
03E000
000000
000000
000000
000000
000000
000000
000000
000000
000000
000000
ENDCHAR
STARTCHAR char112
ENCODING 112
SWIDTH 1491 0
DWIDTH 21 0
BBX 19 40 0 -10
BITMAP
000000
000000
000000
000000
000000
000000
000000
000000
000000
000000
000000
000000
FE7C00
FEFE00
1FC700
1F8380
1F03C0
1E01C0
1E01E0
1E01E0
1E01E0
1E01E0
1E01E0
1E01E0
1E01C0
1F03C0
1F8380
1FC700
1EFE00
1E7C00
1E0000
1E0000
1E0000
1E0000
1E0000
1E0000
1E0000
1E0000
FFC000
FFC000
ENDCHAR
STARTCHAR char113
ENCODING 113
SWIDTH 1491 0
DWIDTH 21 0
BBX 19 40 0 -10
BITMAP
000000
000000
000000
000000
000000
000000
000000
000000
000000
000000
000000
000000
07CFE0
0FEFE0
1C7F00
383F00
781F00
700F00
F00F00
F00F00
F00F00
F00F00
F00F00
F00F00
700F00
781F00
383F00
1C7F00
0FEF00
07CF00
000F00
000F00
000F00
000F00
000F00
000F00
000F00
000F00
003FC0
003FC0
ENDCHAR
STARTCHAR char114
ENCODING 114
SWIDTH 1207 0
DWIDTH 17 0
BBX 15 40 0 -10
BITMAP
0000
0000
0000
0000
0000
0000
0000
0000
0000
0000
0000
0018
FE7C
FEFE
1EFE
1FBE
1F1C
1F00
1E00
1E00
1E00
1E00
1E00
1E00
1E00
1E00
1E00
1E00
FFE0
FFE0
0000
0000
0000
0000
0000
0000
0000
0000
0000
0000
ENDCHAR
STARTCHAR char115
ENCODING 115
SWIDTH 1065 0
DWIDTH 15 0
BBX 13 40 0 -10
BITMAP
0000
0000
0000
0000
0000
0000
0000
0000
0000
0000
0000
0000
0F00
3FE0
71E0
C060
C020
C020
F000
FFC0
FFE0
7FF0
3FF0
8FF8
8078
C038
C038
E030
F070
DFE0
0780
0000
0000
0000
0000
0000
0000
0000
0000
0000
ENDCHAR
STARTCHAR char116
ENCODING 116
SWIDTH 1136 0
DWIDTH 16 0
BBX 14 40 0 -10
BITMAP
0000
0000
0000
0000
0000
0000
0000
0F00
0F00
0F00
0F00
0F00
FFF0
FFF0
0F00
0F00
0F00
0F00
0F00
0F00
0F00
0F00
0F00
0F00
0F00
0F04
0F04
0F8C
0FD8
07F0
03E0
0000
0000
0000
0000
0000
0000
0000
0000
0000
ENDCHAR
STARTCHAR char117
ENCODING 117
SWIDTH 1633 0
DWIDTH 23 0
BBX 21 40 0 -10
BITMAP
000000
000000
000000
000000
000000
000000
000000
000000
000000
000000
000000
000000
FF1FE0
FF1FE0
0F01E0
0F01E0
0F01E0
0F01E0
0F01E0
0F01E0
0F01E0
0F01E0
0F01E0
0F01E0
0F03E0
0F03E0
0F03E0
0F07E0
0F0DF8
07FDF8
01F000
000000
000000
000000
000000
000000
000000
000000
000000
000000
ENDCHAR
STARTCHAR char118
ENCODING 118
SWIDTH 1562 0
DWIDTH 22 0
BBX 20 40 0 -10
BITMAP
000000
000000
000000
000000
000000
000000
000000
000000
000000
000000
000000
000000
FFC7F0
FFC7F0
1E00C0
0F00C0
0F01C0
0F0180
078380
078300
078300
03C700
03C600
03C600
01EE00
00EC00
00FC00
00FC00
007800
007800
000000
000000
000000
000000
000000
000000
000000
000000
000000
000000
ENDCHAR
STARTCHAR char119
ENCODING 119
SWIDTH 2130 0
DWIDTH 30 0
BBX 28 40 0 -10
BITMAP
00000000
00000000
00000000
00000000
00000000
00000000
00000000
00000000
00000000
00000000
00000000
00000000
FFC007F0
FFC107F0
1F0300C0
1F0380C0
0F0381C0
0F078180
0F87C180
078FC380
078FE300
07CDE300
07DDE700
03D9F600
03F8FE00
01F0FC00
01F07C00
01F07C00
00E07800
00E03800
00000000
00000000
00000000
00000000
00000000
00000000
00000000
00000000
00000000
00000000
ENDCHAR
STARTCHAR char120
ENCODING 120
SWIDTH 1491 0
DWIDTH 21 0
BBX 19 40 0 -10
BITMAP
000000
000000
000000
000000
000000
000000
000000
000000
000000
000000
000000
000000
FFDFC0
FFDFC0
1F0E00
0F0C00
0F9800
07D800
07F000
03E000
03E000
01F800
01F800
01FC00
033C00
063E00
061F00
0E1F00
FF3FE0
FF3FE0
000000
000000
000000
000000
000000
000000
000000
000000
000000
000000
ENDCHAR
STARTCHAR char121
ENCODING 121
SWIDTH 1491 0
DWIDTH 21 0
BBX 19 40 0 -10
BITMAP
000000
000000
000000
000000
000000
000000
000000
000000
000000
000000
000000
000000
FF8FE0
FF8FE0
3E0180
1E0380
1F0300
0F0300
0F0700
0F8600
078600
07CE00
03CC00
03EC00
01FC00
01F800
00F800
00F000
007000
006000
006000
00C000
00C000
01C000
398000
7B8000
7F0000
3C0000
000000
000000
ENDCHAR
STARTCHAR char122
ENCODING 122
SWIDTH 1278 0
DWIDTH 18 0
BBX 16 40 0 -10
BITMAP
0000
0000
0000
0000
0000
0000
0000
0000
0000
0000
0000
0000
3FFC
3FFC
3078
3078
20F0
21F0
21E0
03E0
03E0
07C0
0780
0F83
0F02
1E02
3E06
3C0E
7FFE
FFFE
0000
0000
0000
0000
0000
0000
0000
0000
0000
0000
ENDCHAR
STARTCHAR char123
ENCODING 123
SWIDTH 994 0
DWIDTH 14 0
BBX 11 40 0 -10
BITMAP
07E0
0F00
1C00
1800
1800
1C00
0E00
0E00
0E00
0E00
0E00
1C00
1800
3000
7000
F000
7000
3000
1800
1C00
0E00
0E00
0E00
0E00
0E00
1C00
1800
1800
1C00
0F00
07E0
0000
0000
0000
0000
0000
0000
0000
0000
0000
ENDCHAR
STARTCHAR char124
ENCODING 124
SWIDTH 426 0
DWIDTH 6 0
BBX 3 40 1 -10
BITMAP
E0
E0
E0
E0
E0
E0
E0
E0
E0
E0
E0
E0
E0
E0
E0
E0
E0
E0
E0
E0
E0
E0
E0
E0
E0
E0
E0
E0
E0
E0
E0
E0
00
00
00
00
00
00
00
00
ENDCHAR
STARTCHAR char125
ENCODING 125
SWIDTH 923 0
DWIDTH 13 0
BBX 11 40 0 -10
BITMAP
FC00
1E00
0700
0300
0300
0700
0E00
0E00
0E00
0E00
0E00
0700
0300
0180
01C0
01E0
01C0
0180
0300
0700
0E00
0E00
0E00
0E00
0E00
0700
0300
0300
0700
1E00
FC00
0000
0000
0000
0000
0000
0000
0000
0000
0000
ENDCHAR
STARTCHAR char126
ENCODING 126
SWIDTH 1207 0
DWIDTH 17 0
BBX 15 40 0 -10
BITMAP
0000
0000
0000
0000
0000
0000
0000
0000
0000
0000
0000
0000
0000
0000
0000
0000
1C06
3E06
7F06
7F8E
E7CE
E3FC
C1FC
C0F8
C070
0000
0000
0000
0000
0000
0000
0000
0000
0000
0000
0000
0000
0000
0000
0000
ENDCHAR
ENDFONT
